<?xml version="1.0" encoding="iso-8859-1"?>
<!-- Generator: Adobe Illustrator 16.0.0, SVG Export Plug-In . SVG Version: 6.00 Build 0)  -->
<!DOCTYPE svg PUBLIC "-//W3C//DTD SVG 1.1//EN" "http://www.w3.org/Graphics/SVG/1.1/DTD/svg11.dtd">
<svg version="1.1" id="Capa_1" xmlns="http://www.w3.org/2000/svg" xmlns:xlink="http://www.w3.org/1999/xlink" x="0px" y="0px"
	 width="31.214px" height="31.214px" viewBox="0 0 31.214 31.214" style="enable-background:new 0 0 31.214 31.214;"
	 xml:space="preserve">
<g>
	<g>
		<path d="M29.157,10.141c-2.227-2.634-6.055-2.539-8.367-1.415C18.993,9.6,17.668,7.19,16.649,9.191
			c-0.448,0.88,0.633,2.308,0.797,2.516c0,0.001,0,0.005-0.004,0.011c0.02,0.019,0.037,0.035,0.049,0.049
			c-0.074,0.686-0.002,1.402,0.123,2.123c0.015,0.07,0.015,0.145,0.01,0.217c-0.403-0.176-0.803-0.486-1.125-1.004
			c0,0,0.163,0.765,1.105,1.154c-0.002,0.012-0.002,0.021-0.006,0.031c-0.539-0.129-1.106-0.448-1.536-1.142
			c0,0,0.282,0.874,1.518,1.209c-0.159,0.544-0.669,1.098-1.082,1.437c-0.371,0.307-1.064,0.484-0.656,1.028
			c0.306,0.404,1.044,0.248,1.204,0.897c0.081,0.328-0.676,0.961-0.503,1.224c0.067,0.176,0.428,0.348,0.569,0.396
			c-0.174,0.104-0.48,0.392-0.48,0.567c0.13,0.065,0.581,0.094,0.723,1.332c0.24,2.123,2.688,0.764,3.849,0.549
			c1.196-0.223,1.383,2.921-0.374,4.438c-1.758,1.518-5.995,0.994-4.969-1.757c-0.87,0.313-1.534,1.204-1.748,2.194
			c-2.492-0.372-3.038-4.596,0.738-5.34c-5.912-1.789-8.396,3.974-4.421,7.252c1.684,1.39,4.818,2.285,9.042,1.342
			C28.571,27.878,34.578,16.556,29.157,10.141z"/>
		<path d="M10.67,6.665c-0.181-0.267-0.366-0.554-0.546-0.865C9.275,4.328,8.883,2.965,8.883,2.965s0.982,1.022,1.832,2.495
			c0.181,0.311,0.336,0.614,0.475,0.902c0.137-0.697,0.291-2.138-0.39-3.32c-0.939-1.625-3.102-2.13-3.102-2.13
			S7.052,3.04,7.991,4.664C8.671,5.847,9.997,6.43,10.67,6.665z"/>
		<path d="M5.448,14.578c-1.699,0-3.076-0.343-3.076-0.343s1.377-0.341,3.076-0.341c0.361,0,0.703,0.017,1.023,0.042
			c-0.539-0.47-1.707-1.323-3.075-1.323C1.523,12.613,0,14.235,0,14.235s1.523,1.622,3.396,1.622c1.368,0,2.535-0.854,3.075-1.321
			C6.151,14.56,5.809,14.578,5.448,14.578z"/>
		<path d="M20.061,5.458c0.85-1.471,1.834-2.493,1.834-2.493S21.502,4.328,20.651,5.8c-0.18,0.311-0.363,0.599-0.547,0.865
			c0.676-0.234,1.998-0.818,2.68-2.001c0.939-1.624,0.296-3.753,0.296-3.753s-2.164,0.506-3.103,2.129
			c-0.684,1.185-0.527,2.622-0.393,3.322C19.725,6.074,19.88,5.77,20.061,5.458z"/>
		<path d="M6.68,10.664c0.919,0.531,2.038,0.409,2.583,0.305C9.037,10.86,8.802,10.74,8.558,10.6
			C7.414,9.937,6.619,9.172,6.619,9.172s1.06,0.306,2.204,0.968c0.244,0.14,0.467,0.285,0.672,0.425
			c-0.178-0.524-0.636-1.554-1.554-2.087C6.676,7.749,5.023,8.25,5.023,8.25S5.415,9.934,6.68,10.664z"/>
		<path d="M9.497,17.908c-0.208,0.141-0.431,0.285-0.673,0.425c-1.144,0.662-2.206,0.966-2.206,0.966s0.795-0.766,1.94-1.427
			c0.243-0.14,0.48-0.261,0.706-0.367C8.718,17.398,7.6,17.275,6.678,17.81c-1.263,0.729-1.658,2.412-1.658,2.412
			s1.658,0.5,2.919-0.229C8.861,19.461,9.315,18.433,9.497,17.908z"/>
		<path d="M15.122,6.503c0-1.322,0.266-2.396,0.266-2.396s0.267,1.073,0.267,2.396c0,0.277-0.013,0.545-0.032,0.794
			c0.365-0.419,1.028-1.327,1.028-2.389c0-1.46-1.263-2.645-1.263-2.645s-1.261,1.184-1.262,2.642c0,1.064,0.665,1.973,1.03,2.39
			C15.136,7.048,15.122,6.784,15.122,6.503z"/>
	</g>
</g>
<g>
</g>
<g>
</g>
<g>
</g>
<g>
</g>
<g>
</g>
<g>
</g>
<g>
</g>
<g>
</g>
<g>
</g>
<g>
</g>
<g>
</g>
<g>
</g>
<g>
</g>
<g>
</g>
<g>
</g>
</svg>
